# xmcd
#
# Track frame offsets:
#	150
#	15541
#	34033
#	42643
#	54262
#	86929
#	101461
#	114214
#	123548
#	140903
#	153567
#	169197
#	180674
#	189031
#	202191
#	216556
#	229152
#	240074
#	251933
#
# Disc length: 3581 seconds
#
# Revision: 1
# Processed by: cddbd v1.5.2PL0 Copyright (c) Steve Scherf et al.
# Submitted via: audiograbber 1.83.01
#
DISCID=0d0dfb13
DTITLE=Johnny Cash and Bob Dylan - Nashville 1969
DYEAR=1969
DGENRE=Country
TTITLE0=One Too Many Mornings #1
TTITLE1=One Too Many Mornings #2
TTITLE2=Good Old Mountain Dew
TTITLE3=I Still Miss Someone
TTITLE4=Careless Love
TTITLE5=Matchbox
TTITLE6=That´s Allright Mama
TTITLE7=Big River
TTITLE8=Girl Of The North Country
TTITLE9=I Walk The Line
TTITLE10=You Are My Sunshine
TTITLE11=Ring Of Fire
TTITLE12=Guess Things Happen That Way
TTITLE13=Just A Closer Walk With Thee
TTITLE14=Blues Yodel #1
TTITLE15=Blues Yodel #5
TTITLE16=I Threw It All Away
TTITLE17=Livin´The Blues
TTITLE18=Girl Of The North Country
EXTD=
EXTT0=
EXTT1=
EXTT2=
EXTT3=
EXTT4=
EXTT5=
EXTT6=
EXTT7=
EXTT8=
EXTT9=
EXTT10=
EXTT11=
EXTT12=
EXTT13=
EXTT14=
EXTT15=
EXTT16=
EXTT17=
EXTT18=
PLAYORDER=
